<svg width="66" height="66" viewBox="0 0 66 66" fill="none" xmlns="http://www.w3.org/2000/svg">
<circle cx="33" cy="33" r="33" fill="#1B46F5"/>
<path d="M52.1256 36.6985C52.1256 35.4524 51.7867 34.4818 51.1191 33.8136C50.9599 33.6545 50.7882 33.5147 50.6039 33.3931C50.8829 30.482 50.9582 26.9895 50.9582 22.5926V21.8069L50.2245 21.5205C49.093 21.0823 47.9421 20.6806 46.8038 20.3274L46.7879 20.3223C46.2321 20.1499 43.4311 19.3996 42.525 19.2056L42.4982 19.1994C41.9488 19.0824 41.3788 18.9723 40.7973 18.8701L40.7842 18.8679C40.3369 18.7897 39.8838 18.7184 39.4279 18.6527L42.9707 15.1996L36.1243 14.2051L33.0625 8L30.0008 14.2051L23.1538 15.1996L26.6966 18.6533C26.2412 18.7189 25.7882 18.7903 25.3414 18.8684L25.3169 18.873C24.7703 18.9677 24.2026 19.0778 23.6348 19.1988L23.6057 19.2045C22.7036 19.3974 19.8964 20.1488 19.3418 20.3211L19.3298 20.3251C18.1909 20.6783 17.0372 21.0806 15.8995 21.5216L15.1663 21.8069V22.5932C15.1663 27.0968 15.2456 30.6521 15.5417 33.6048C15.2998 33.7811 15.0932 33.9843 14.9226 34.2131C14.5637 34.6935 14.3817 35.2487 14.3817 35.8632C14.3817 36.6004 14.5928 37.1949 15.0099 37.632C15.0664 37.6907 15.1246 37.7472 15.184 37.8003L14 40.3497L14.5643 40.7211C14.9711 40.9893 15.4841 41.201 16.1317 41.3681C16.5699 41.4811 17.0201 41.5541 17.4748 41.5872C17.4902 41.6203 17.5056 41.654 17.5211 41.6871C19.4839 45.9094 22.876 48.9243 29.0331 54.3979L29.2191 54.5634C30.1931 55.4295 31.1996 56.3253 32.2945 57.309L33.062 58L33.8317 57.3096C34.974 56.2831 36.021 55.3525 37.0332 54.4527L37.0931 54.3991C43.2508 48.9249 46.6429 45.91 48.6052 41.6877C48.6337 41.6266 48.6616 41.5656 48.689 41.5039H52.1262V36.6985H52.1256Z" fill="white"/>
<path d="M27.4067 19.3494C26.7631 19.4321 26.1144 19.5314 25.469 19.6444L25.4548 19.6466C24.9036 19.7431 24.345 19.8509 23.7921 19.9696L23.7693 19.9742C22.9105 20.1579 20.113 20.9053 19.5766 21.072L19.5624 21.0759C18.4355 21.4263 17.2983 21.8228 16.1845 22.2548L15.9512 22.3455V22.596C15.9512 26.9347 16.0311 30.3604 16.2952 33.1888C16.3266 33.1757 16.358 33.1631 16.3894 33.1506C16.5822 33.0758 16.7859 33.0131 17.0005 32.9629C16.7551 30.2298 16.6849 26.9484 16.6827 22.8465C17.7057 22.4556 18.7459 22.095 19.7826 21.7732L19.7975 21.7686C20.3213 21.6066 23.0777 20.8694 23.9222 20.6891L23.9456 20.6845C24.4888 20.5681 25.0394 20.462 25.5803 20.3673L25.6025 20.3633C26.423 20.2206 27.2544 20.0991 28.0777 20.0038H28.0789L27.4067 19.3494ZM49.9412 22.2542C48.8275 21.8223 47.6903 21.4257 46.5628 21.0754L46.556 21.0737C46.0219 20.9076 43.2152 20.1573 42.3554 19.9736L42.3348 19.969C41.7831 19.8515 41.2222 19.7425 40.6704 19.6461L40.6499 19.6426C40.0091 19.5308 39.3615 19.4315 38.7173 19.3477L38.0463 20.0021L38.0526 20.0027C38.8725 20.098 39.7044 20.2189 40.5238 20.3616L40.5443 20.3656C41.0887 20.4603 41.6399 20.567 42.1836 20.6828L42.2013 20.6868C43.0469 20.8677 45.8017 21.6037 46.3409 21.7709L46.346 21.7721C47.3788 22.0927 48.4201 22.4528 49.4431 22.8447C49.4408 26.893 49.3724 30.1425 49.1344 32.8539C49.3844 32.8893 49.6217 32.9457 49.8454 33.0228C50.0976 30.2264 50.174 26.8497 50.174 22.5943V22.3438L49.9412 22.2542ZM47.2036 41.5056H47.0113C45.1335 45.2241 41.8498 48.1437 36.0853 53.2693C35.1255 54.1223 34.1356 55.0027 33.0623 55.9653C31.9891 55.0015 30.9991 54.1223 30.0394 53.2681C24.2868 48.1546 21.0054 45.2366 19.1253 41.5296C18.8783 41.5684 18.6192 41.5935 18.3482 41.6043C20.2636 45.5567 23.6483 48.5648 29.5538 53.8147C30.5849 54.7322 31.6518 55.68 32.8175 56.7281L33.0623 56.9478L33.3071 56.7281C34.4728 55.6811 35.5398 54.7322 36.5708 53.8159C42.526 48.522 45.9169 45.5071 47.8244 41.5056H47.2036Z" fill="#1B46F5"/>
<path d="M36.389 19.5018L37.1747 24.0807L33.0626 21.9188L28.951 24.0807L29.7361 19.5018L26.4102 16.2592L31.0068 15.5916L33.0626 11.4258L35.1184 15.5916L39.7155 16.2592L36.389 19.5018Z" fill="white"/>
<path d="M38.145 25.4165L33.0622 22.7445L27.9795 25.4165L28.9501 19.7569L24.8379 15.7486L30.5209 14.9229L33.0622 9.77344L35.6036 14.9229L41.2866 15.7486L37.1744 19.7569L38.145 25.4165ZM33.0622 21.9183L37.1738 24.0802L36.3887 19.5018L39.7152 16.2592L35.118 15.5911L33.0622 11.4253L31.0064 15.5911L26.4093 16.2592L29.7358 19.5018L28.9506 24.0802L33.0622 21.9183Z" fill="#1B46F5"/>
<path fill-rule="evenodd" clip-rule="evenodd" d="M21.2999 26.9336L21.5298 28.271L20.3316 27.6411L20.3282 27.6394L19.1277 28.271L19.3565 26.9336L18.3848 25.9858L19.7285 25.7907L20.3282 24.5742L20.3316 24.5811L20.929 25.7907L22.2716 25.9858L21.2999 26.9336Z" fill="#1B46F5"/>
<path fill-rule="evenodd" clip-rule="evenodd" d="M46.7667 26.9336L46.9966 28.271L45.799 27.6411L45.795 27.6394L44.5945 28.271L44.8233 26.9336L43.8516 25.9858L45.1953 25.7907L45.795 24.5742L45.799 24.5811L46.3958 25.7907L47.7384 25.9858L46.7667 26.9336Z" fill="#1B46F5"/>
<path d="M28.6351 31.3778C28.3447 31.3778 28.0851 31.3139 27.8557 31.1861C27.6281 31.0589 27.4489 30.8814 27.3217 30.6521C27.1944 30.4244 27.1305 30.1642 27.1305 29.8727C27.1305 29.5822 27.1944 29.3226 27.3217 29.0944C27.4489 28.8656 27.6275 28.6876 27.8557 28.5603C28.0845 28.4319 28.3441 28.3686 28.6351 28.3686C29.1053 28.3686 29.4996 28.5523 29.818 28.9198L30.5163 28.2739C30.2927 28.0057 30.0165 27.7997 29.6867 27.6571C29.3569 27.5133 28.9895 27.4414 28.5821 27.4414C28.0988 27.4414 27.6634 27.5464 27.2749 27.7547C26.888 27.9618 26.5839 28.2516 26.3619 28.6202C26.14 28.99 26.0293 29.4076 26.0293 29.8727C26.0293 30.3388 26.14 30.7565 26.3619 31.1262C26.5839 31.4948 26.8874 31.7841 27.2749 31.9918C27.6629 32.2001 28.0959 32.305 28.5747 32.305C28.9821 32.305 29.3518 32.2331 29.6833 32.0894C30.0137 31.9467 30.2921 31.7384 30.5158 31.4651L29.8174 30.8204C29.4996 31.1924 29.1053 31.3778 28.6351 31.3778Z" fill="black"/>
<path d="M33.9223 29.7932L35.46 27.5234H34.3114L33.0755 29.424H32.2961V27.5234H31.2148V32.2245H32.2961V30.3301H33.0487L34.2714 32.2245H35.5073L33.9223 29.7932Z" fill="black"/>
<path d="M40.0387 28.4496C39.8601 28.1181 39.6096 27.8676 39.2872 27.697C39.2336 27.6685 39.1782 27.6428 39.1212 27.62C38.837 27.5007 38.5146 27.4414 38.1517 27.4414C37.7175 27.4414 37.3387 27.5264 37.0163 27.697C36.9524 27.7307 36.8919 27.7666 36.8348 27.8077C36.5986 27.9692 36.4086 28.1826 36.2648 28.4496C36.0851 28.78 35.9961 29.1817 35.9961 29.6518V32.2234H37.0711V31.0954H39.2193V32.2234H40.3074V29.6518C40.3074 29.1817 40.2184 28.78 40.0387 28.4496ZM39.2193 30.2224H37.0705V29.5497C37.0705 29.1606 37.1652 28.8661 37.3558 28.667C37.5458 28.4679 37.8083 28.368 38.1443 28.368C38.4758 28.368 38.7377 28.4679 38.9306 28.667C39.1223 28.8661 39.2193 29.1606 39.2193 29.5497V30.2224Z" fill="black"/>
<path d="M16.3278 40.6108C15.7709 40.467 15.327 40.2867 14.9961 40.0687L15.6751 38.6063C15.9883 38.8066 16.3672 38.9698 16.8111 39.0959C17.255 39.222 17.6904 39.2853 18.1166 39.2853C18.9782 39.2853 19.409 39.0725 19.409 38.6457C19.409 38.4454 19.2914 38.3022 19.0563 38.2149C18.8213 38.1282 18.4601 38.054 17.9728 37.9929C17.3982 37.9062 16.9241 37.8058 16.5498 37.6928C16.1755 37.5798 15.8514 37.3796 15.5769 37.0926C15.3031 36.8056 15.1656 36.3964 15.1656 35.8652C15.1656 35.4213 15.2939 35.0276 15.5507 34.6836C15.8075 34.3401 16.1818 34.0725 16.6736 33.8808C17.1654 33.6896 17.7463 33.5938 18.4167 33.5938C18.9131 33.5938 19.4067 33.648 19.8985 33.7569C20.3904 33.8659 20.7972 34.016 21.119 34.2071L20.44 35.6564C19.8221 35.3083 19.1476 35.1343 18.4162 35.1343C17.9808 35.1343 17.6544 35.1954 17.437 35.3169C17.2196 35.439 17.1107 35.5953 17.1107 35.7871C17.1107 36.0045 17.2282 36.1574 17.4633 36.2441C17.6984 36.3314 18.0727 36.4136 18.5862 36.4923C19.1608 36.5882 19.6304 36.6903 19.9961 36.7993C20.3618 36.9083 20.6791 37.1062 20.949 37.3932C21.2188 37.6803 21.3535 38.0808 21.3535 38.5943C21.3535 39.0297 21.2228 39.4165 20.9621 39.756C20.7013 40.0955 20.3202 40.3586 19.8198 40.5457C19.3194 40.7329 18.7254 40.8264 18.0379 40.8264C17.4547 40.8264 16.8847 40.7545 16.3278 40.6108Z" fill="black"/>
<path d="M33.7169 33.6992V37.5769C33.7169 38.6125 33.4339 39.4136 32.8685 39.979C32.3025 40.545 31.4974 40.8275 30.4532 40.8275C29.9483 40.8275 29.5021 40.7493 29.1152 40.5924C28.7278 40.4361 28.4037 40.1833 28.1424 39.8352C27.881 40.1833 27.5592 40.4355 27.1764 40.5924C26.7935 40.7493 26.341 40.8275 25.819 40.8275C24.7657 40.8275 23.9606 40.545 23.4037 39.979C22.8468 39.4136 22.5684 38.6125 22.5684 37.5769V33.6992H24.6048V37.42C24.6048 38.0031 24.7046 38.4316 24.9049 38.7061C25.1052 38.9799 25.4184 39.1175 25.8446 39.1175C26.28 39.1175 26.6018 38.9782 26.8106 38.6998C27.0195 38.4213 27.1239 37.9946 27.1239 37.4205V33.6998H29.1603V37.4205C29.1603 37.9951 29.2647 38.4213 29.4735 38.6998C29.6824 38.9782 30.0042 39.1175 30.4395 39.1175C30.8657 39.1175 31.179 38.9805 31.3798 38.7061C31.5801 38.4322 31.68 38.0031 31.68 37.42V33.6992H33.7169Z" fill="black"/>
<path d="M35.5449 33.6992H37.5813V40.7231H35.5449V33.6992Z" fill="black"/>
<path d="M50.565 34.3709C51.0825 34.889 51.3415 35.6655 51.3415 36.7011V40.722H49.3051V37.0144C49.3051 36.4575 49.1899 36.0415 48.9594 35.7677C48.7289 35.4938 48.4002 35.3563 47.9734 35.3563C47.4947 35.3563 47.1158 35.5109 46.8374 35.8196C46.5589 36.1288 46.4197 36.5876 46.4197 37.197V40.722H44.3833V37.0144C44.3833 35.9092 43.9394 35.3563 43.0516 35.3563C42.5814 35.3563 42.2071 35.5109 41.9287 35.8196C41.6502 36.1288 41.511 36.5876 41.511 37.197V40.722H39.4746V33.6982H41.4197V34.5078C41.681 34.2123 42.0006 33.9857 42.3794 33.8288C42.7583 33.6719 43.1737 33.5938 43.6262 33.5938C44.122 33.5938 44.5705 33.6919 44.971 33.8876C45.371 34.0833 45.6934 34.3686 45.937 34.7429C46.224 34.3772 46.5875 34.0947 47.0274 33.8944C47.4667 33.6942 47.9477 33.5943 48.4698 33.5943C49.3485 33.5943 50.0475 33.8534 50.565 34.3709Z" fill="black"/>
<path d="M44.9237 42.8618C44.7611 43.106 44.5905 43.3485 44.4113 43.5899C43.7141 43.6373 43.3438 43.9094 42.921 44.2204C42.4234 44.5861 41.8603 45.0004 40.7756 45.0004C39.6915 45.0004 39.1278 44.5856 38.6302 44.2204C38.1646 43.878 37.7624 43.5825 36.9179 43.5825C36.0734 43.5825 35.6712 43.878 35.2056 44.2204C34.7086 44.5861 34.1449 45.0004 33.0602 45.0004C31.9761 45.0004 31.4124 44.5856 30.9148 44.2204C30.4492 43.878 30.047 43.5825 29.2025 43.5825C28.3581 43.5825 27.9558 43.878 27.4902 44.2204C26.9932 44.5861 26.4295 45.0004 25.3448 45.0004C24.2601 45.0004 23.697 44.5856 23.1994 44.2204C22.7766 43.9094 22.4063 43.6373 21.7096 43.5899C21.5305 43.3485 21.3599 43.106 21.1973 42.8618C21.2897 42.855 21.3861 42.8516 21.4877 42.8516C22.5718 42.8516 23.1355 43.2664 23.6331 43.6315C24.0987 43.9739 24.5009 44.2695 25.3454 44.2695C26.1898 44.2695 26.5921 43.9739 27.0577 43.6315C27.5552 43.2658 28.1184 42.8516 29.2031 42.8516C30.2872 42.8516 30.8509 43.2664 31.3485 43.6315C31.8141 43.9739 32.2163 44.2695 33.0608 44.2695C33.9052 44.2695 34.3075 43.9739 34.7731 43.6315C35.2706 43.2658 35.8338 42.8516 36.9185 42.8516C38.0026 42.8516 38.5663 43.2664 39.0639 43.6315C39.5295 43.9739 39.9317 44.2695 40.7762 44.2695C41.6206 44.2695 42.0229 43.9739 42.4885 43.6315C42.9855 43.2658 43.5492 42.8516 44.6339 42.8516C44.7343 42.8516 44.8313 42.855 44.9237 42.8618Z" fill="#1B46F5"/>
<path d="M40.5415 47.7888C40.3253 47.9936 40.1027 48.2019 39.8734 48.4142C39.3353 48.2658 38.9679 47.9959 38.6312 47.7483C38.1656 47.406 37.7634 47.1104 36.9189 47.1104C36.0744 47.1104 35.6722 47.406 35.2066 47.7483C34.7096 48.114 34.1459 48.5283 33.0612 48.5283C31.9771 48.5283 31.4134 48.114 30.9158 47.7483C30.4502 47.406 30.048 47.1104 29.2035 47.1104C28.359 47.1104 27.9568 47.406 27.4912 47.7483C27.1546 47.9959 26.7877 48.2658 26.2496 48.4142C26.0208 48.2019 25.7983 47.9936 25.582 47.7888C26.2702 47.7392 26.6382 47.4681 27.0581 47.1589C27.5557 46.7931 28.1188 46.3789 29.2035 46.3789C30.2876 46.3789 30.8513 46.7931 31.3489 47.1589C31.8145 47.5012 32.2167 47.7968 33.0612 47.7968C33.9057 47.7968 34.3079 47.5012 34.7735 47.1589C35.2711 46.7931 35.8342 46.3789 36.9189 46.3789C38.003 46.3789 38.5667 46.7931 39.0643 47.1589C39.4842 47.4681 39.8528 47.7392 40.5415 47.7888Z" fill="#1B46F5"/>
<path d="M38.0316 50.0871C37.8182 50.2783 37.6009 50.4728 37.3783 50.6714C37.2402 50.6491 37.0879 50.6372 36.9179 50.6372C36.0734 50.6372 35.6712 50.9327 35.2056 51.2751C34.7086 51.6408 34.1448 52.0551 33.0602 52.0551C31.9761 52.0551 31.4123 51.6402 30.9148 51.2751C30.4492 50.9327 30.0469 50.6372 29.2025 50.6372C29.0324 50.6372 28.8807 50.6491 28.7426 50.6714L28.4128 50.3764L28.0898 50.0871C28.3928 49.9776 28.7529 49.9062 29.203 49.9062C30.2872 49.9062 30.8509 50.3205 31.3484 50.6862C31.814 51.0286 32.2163 51.3247 33.0607 51.3247C33.9052 51.3247 34.3075 51.0292 34.7731 50.6868C35.2706 50.3211 35.8338 49.9068 36.9184 49.9068C37.3681 49.9063 37.7287 49.9776 38.0316 50.0871Z" fill="#1B46F5"/>
</svg>
