<svg width="100%" height="100%" viewBox="0 0 31 31" fill="none" xmlns="http://www.w3.org/2000/svg">
<path d="M24.382 30.5H6.61804C3.23913 30.5 0.5 27.7609 0.5 24.382V6.61804C0.5 3.23913 3.23913 0.5 6.61804 0.5H24.382C27.7609 0.5 30.5 3.23913 30.5 6.61804V24.382C30.5 27.7609 27.7609 30.5 24.382 30.5Z" fill="white"/>
<path d="M22.2307 7.08698H8.76724C7.84181 7.08698 7.08594 7.84545 7.08594 8.76828V22.2318C7.08594 23.1546 7.84181 23.9131 8.76724 23.9131H22.2307C23.1562 23.9131 23.912 23.1546 23.912 22.2318V8.76828C23.912 7.84545 23.1562 7.08698 22.2307 7.08698ZM10.7179 8.60393C10.7179 8.38741 10.8959 8.21002 11.1144 8.21002H19.8862C20.102 8.21002 20.2801 8.38741 20.2801 8.60393V9.24176C20.2801 9.45828 20.102 9.63632 19.8862 9.63632H11.1144C10.8959 9.63632 10.7179 9.45828 10.7179 9.24176V8.60393ZM11.627 21.8946H9.04963V19.6028H11.627V21.8946ZM11.627 18.8359H9.04963V16.5435H11.627V18.8359ZM15.0666 21.8946H12.4892V19.6028H15.0666V21.8946ZM15.0666 18.8359H12.4892V16.5435H15.0666V18.8359ZM15.0666 15.7739H12.4892V13.4815H15.0666V15.7739ZM18.5088 21.8946H15.9314V19.6028H18.5088V21.8946ZM18.5088 18.8359H15.9314V16.5435H18.5088V18.8359ZM18.5088 15.7739H15.9314V13.4815H18.5088V15.7739ZM21.9483 21.8946H19.3709V19.6028H21.9483V21.8946ZM21.9483 18.8359H19.3709V16.5435H21.9483V18.8359ZM21.9483 15.7739H19.3709V13.4815H21.9483V15.7739Z" fill="#1B46F5"/>
</svg>
