<svg width="100%" height="100%" viewBox="0 0 45 52" fill="none" xmlns="http://www.w3.org/2000/svg">
<g clip-path="url(#clip0)">
<path d="M22.4992 0.347656C28.2975 0.347656 33.8583 2.67065 37.9583 6.8056C42.0584 10.9406 44.3617 16.5488 44.3617 22.3965C44.3617 32.9321 37.3111 42.6299 23.4757 51.5082C23.1838 51.6952 22.8451 51.7945 22.4992 51.7945C22.1534 51.7945 21.8147 51.6952 21.5227 51.5082C7.68737 42.6299 0.636719 32.9321 0.636719 22.3965C0.636719 16.5488 2.94008 10.9406 7.0401 6.8056C11.1401 2.67065 16.7009 0.347656 22.4992 0.347656ZM22.4992 15.0469C20.5665 15.0469 18.7128 15.8212 17.3462 17.1995C15.9795 18.5778 15.2117 20.4472 15.2117 22.3965C15.2117 24.3457 15.9795 26.2151 17.3462 27.5934C18.7128 28.9717 20.5665 29.7461 22.4992 29.7461C24.432 29.7461 26.2856 28.9717 27.6523 27.5934C29.0189 26.2151 29.7867 24.3457 29.7867 22.3965C29.7867 20.4472 29.0189 18.5778 27.6523 17.1995C26.2856 15.8212 24.432 15.0469 22.4992 15.0469Z" fill="white"/>
</g>
<defs>
<clipPath id="clip0">
<rect width="44" height="52" fill="white" transform="translate(0.5)"/>
</clipPath>
</defs>
</svg>
