<svg width="100%" height="100%" viewBox="0 0 87 60" fill="none" xmlns="http://www.w3.org/2000/svg">
<path d="M86.6924 34.673V36.9894C83.9137 36.7342 82.3193 35.5608 80.8928 34.5116C79.3726 33.3949 78.0596 32.4287 75.3005 32.4287C72.5414 32.4287 71.2305 33.3949 69.7103 34.5116C68.0963 35.6982 66.2663 37.0439 62.7504 37.0439C59.2345 37.0439 57.4067 35.6982 55.7927 34.5116C54.2725 33.3949 52.9594 32.4287 50.2003 32.4287C47.4412 32.4287 46.1282 33.3949 44.608 34.5116C42.994 35.6982 41.1662 37.0439 37.6502 37.0439C34.1343 37.0439 32.3044 35.6982 30.6903 34.5116C29.1723 33.3949 27.8593 32.4287 25.1002 32.4287C22.3411 32.4287 21.028 33.3949 19.5078 34.5116C17.8938 35.6982 16.066 37.0439 12.5501 37.0439C9.03414 37.0439 7.20419 35.6982 5.59017 34.5116C4.08957 33.408 2.79182 32.4527 0.102512 32.4287H0V30.1233C0.0348977 30.1233 0.0697954 30.1233 0.102512 30.1254C3.55302 30.1494 5.35898 31.4777 6.95773 32.6533C8.47796 33.7723 9.79098 34.7363 12.5501 34.7363C15.3092 34.7363 16.6222 33.7723 18.1403 32.6533C19.7543 31.4668 21.5842 30.1233 25.1002 30.1233C28.6161 30.1233 30.4439 31.4668 32.0579 32.6533C33.5781 33.7723 34.8911 34.7363 37.6502 34.7363C40.4093 34.7363 41.7224 33.7723 43.2426 32.6533C44.8544 31.4668 46.6844 30.1233 50.2003 30.1233C53.7163 30.1233 55.5462 31.4668 57.1581 32.6533C58.6783 33.7723 59.9913 34.7363 62.7504 34.7363C65.5095 34.7363 66.8225 33.7723 68.3428 32.6533C69.9568 31.4668 71.7845 30.1233 75.3005 30.1233C78.8164 30.1233 80.6464 31.4668 82.2604 32.6533C83.5494 33.6021 84.6901 34.4397 86.6924 34.673Z" fill="white"/>
<path d="M86.6924 46.1521V48.4663C83.9137 48.2111 82.3193 47.0398 80.8928 45.9907C79.3726 44.8718 78.0596 43.9078 75.3005 43.9078C72.5414 43.9078 71.2305 44.8718 69.7103 45.9907C68.0963 47.1772 66.2663 48.5208 62.7504 48.5208C59.2345 48.5208 57.4067 47.1772 55.7927 45.9907C54.2725 44.8718 52.9594 43.9078 50.2003 43.9078C47.4412 43.9078 46.1282 44.8718 44.608 45.9907C42.994 47.1772 41.1662 48.5208 37.6502 48.5208C34.1343 48.5208 32.3044 47.1772 30.6903 45.9907C29.1723 44.8718 27.8593 43.9078 25.1002 43.9078C22.3411 43.9078 21.028 44.8718 19.5078 45.9907C17.8938 47.1772 16.066 48.5208 12.5501 48.5208C9.03414 48.5208 7.20419 47.1772 5.59017 45.9907C4.08957 44.8849 2.79182 43.9318 0.102512 43.9078H0V41.6002C0.0348977 41.6002 0.0697954 41.6002 0.102512 41.6023C3.55302 41.6263 5.35898 42.9568 6.95773 44.1324C8.47796 45.2491 9.79098 46.2154 12.5501 46.2154C15.3092 46.2154 16.6222 45.2491 18.1403 44.1324C19.7543 42.9459 21.5842 41.6002 25.1002 41.6002C28.6161 41.6002 30.4439 42.9459 32.0579 44.1324C33.5781 45.2491 34.8911 46.2154 37.6502 46.2154C40.4093 46.2154 41.7224 45.2491 43.2426 44.1324C44.8544 42.9459 46.6844 41.6002 50.2003 41.6002C53.7163 41.6002 55.5462 42.9459 57.1581 44.1324C58.6783 45.2491 59.9913 46.2154 62.7504 46.2154C65.5095 46.2154 66.8225 45.2491 68.3428 44.1324C69.9568 42.9459 71.7845 41.6002 75.3005 41.6002C78.8164 41.6002 80.6464 42.9459 82.2604 44.1324C83.5494 45.079 84.6901 45.9187 86.6924 46.1521Z" fill="white"/>
<path d="M86.6924 57.6292V59.9455C83.9137 59.6904 82.3193 58.5169 80.8928 57.4678C79.3726 56.3511 78.0596 55.3848 75.3005 55.3848C72.5414 55.3848 71.2305 56.3511 69.7103 57.4678C68.0963 58.6543 66.2663 60.0001 62.7504 60.0001C59.2345 60.0001 57.4067 58.6543 55.7927 57.4678C54.2725 56.3511 52.9594 55.3848 50.2003 55.3848C47.4412 55.3848 46.1282 56.3511 44.608 57.4678C42.994 58.6543 41.1662 60.0001 37.6502 60.0001C34.1343 60.0001 32.3044 58.6543 30.6903 57.4678C29.1723 56.3511 27.8593 55.3848 25.1002 55.3848C22.3411 55.3848 21.028 56.3511 19.5078 57.4678C17.8938 58.6543 16.066 60.0001 12.5501 60.0001C9.03414 60.0001 7.20419 58.6543 5.59017 57.4678C4.08957 56.3642 2.79182 55.4088 0.102512 55.3848H0V53.0772C0.0348977 53.0772 0.0697954 53.0772 0.102512 53.0794C3.55302 53.1034 5.35898 54.4339 6.95773 55.6095C8.47796 56.7262 9.79098 57.6925 12.5501 57.6925C15.3092 57.6925 16.6222 56.7262 18.1403 55.6095C19.7543 54.423 21.5842 53.0772 25.1002 53.0772C28.6161 53.0772 30.4439 54.423 32.0579 55.6095C33.5781 56.7262 34.8911 57.6925 37.6502 57.6925C40.4093 57.6925 41.7224 56.7262 43.2426 55.6095C44.8544 54.423 46.6844 53.0772 50.2003 53.0772C53.7163 53.0772 55.5462 54.423 57.1581 55.6095C58.6783 56.7262 59.9913 57.6925 62.7504 57.6925C65.5095 57.6925 66.8225 56.7262 68.3428 55.6095C69.9568 54.423 71.7845 53.0772 75.3005 53.0772C78.8164 53.0772 80.6464 54.423 82.2604 55.6095C83.5494 56.5561 84.6901 57.3958 86.6924 57.6292Z" fill="white"/>
<path d="M60.3511 18.8797H38.8672V21.1873H60.3511V18.8797Z" fill="white"/>
<path d="M39.9111 29.085H37.6035V8.46051C37.6035 3.79512 41.3986 0 46.064 0C50.7294 0 54.5245 3.79512 54.5245 8.46051H52.2169C52.2169 5.06671 49.4556 2.30761 46.064 2.30761C42.6724 2.30761 39.9111 5.06889 39.9111 8.46051V29.085Z" fill="white"/>
<path d="M61.5029 29.085H59.1953V8.46051C59.1953 3.79512 62.9904 0 67.6558 0C72.3212 0 76.1163 3.79512 76.1163 8.46051H73.8087C73.8087 5.06671 71.0474 2.30761 67.6558 2.30761C64.2642 2.30761 61.5029 5.06889 61.5029 8.46051V29.085Z" fill="white"/>
</svg>
