<svg width="100%" height="100%" viewBox="0 0 87 60" fill="none" xmlns="http://www.w3.org/2000/svg">
<path d="M18.1462 32.6444C19.5753 31.5949 21.1724 30.4211 23.9585 30.1658L22.8698 32.6858C21.4953 33.0458 20.5527 33.7396 19.5142 34.5033C17.8996 35.6902 16.0713 37.0364 12.5542 37.0364C9.03709 37.0364 7.20655 35.6902 5.592 34.5033C4.09091 33.3993 2.79273 32.4436 0.102545 32.4196H0V30.1135C0.0349091 30.1135 0.0698182 30.1135 0.102545 30.1156C3.55418 30.1396 5.36073 31.4684 6.96 32.6444C8.48073 33.7636 9.79418 34.728 12.5542 34.728C15.3142 34.728 16.6276 33.7636 18.1462 32.6444Z" fill="white"/>
<path d="M86.7216 34.6648V36.9819C83.9419 36.7266 82.347 35.5528 80.9201 34.5033C79.3994 33.3863 78.0859 32.4197 75.3259 32.4197C72.5659 32.4197 71.2525 33.3863 69.7339 34.5033C68.1194 35.6903 66.2889 37.0364 62.7718 37.0364C59.2547 37.0364 57.4263 35.6903 55.8118 34.5033C54.5638 33.587 53.4554 32.771 51.5703 32.507L52.5107 30.3317C54.6139 30.7593 55.9579 31.7477 57.1776 32.6444C58.6983 33.7637 60.0118 34.7281 62.7718 34.7281C65.5318 34.7281 66.8452 33.7637 68.3659 32.6444C69.9805 31.4575 71.8089 30.1135 75.3259 30.1135C78.843 30.1135 80.6736 31.4575 82.2881 32.6444C83.5776 33.5935 84.7187 34.4313 86.7216 34.6648Z" fill="white"/>
<path d="M18.1811 44.1011L20.6662 45.1746C20.2778 45.4255 19.9025 45.7004 19.5142 45.9862C17.8996 47.1731 16.0713 48.5171 12.5542 48.5171C9.03709 48.5171 7.20655 47.1731 5.592 45.9862C4.09091 44.8801 2.79273 43.9266 0.102545 43.9026H0V41.5942C0.0349091 41.5942 0.0698182 41.5942 0.102545 41.5964C3.55418 41.6204 5.36073 42.9513 6.96 44.1273C8.48073 45.2444 9.79418 46.211 12.5542 46.211C15.3142 46.211 16.6276 45.2444 18.1462 44.1273C18.1571 44.1186 18.1702 44.1099 18.1811 44.1011Z" fill="white"/>
<path d="M86.7206 46.1476V48.4625C83.941 48.2073 82.3461 47.0356 80.9191 45.9862C79.3984 44.8669 78.085 43.9025 75.325 43.9025C72.565 43.9025 71.2515 44.8669 69.733 45.9862C68.1184 47.1731 66.2879 48.5171 62.7708 48.5171C59.9061 48.5171 58.1606 47.6247 56.7402 46.6516L57.6741 44.4895C59.0028 45.4451 60.3141 46.2109 62.7708 46.2109C65.5308 46.2109 66.8442 45.2444 68.365 44.1273C69.9795 42.9404 71.8079 41.5942 75.325 41.5942C78.8421 41.5942 80.6726 42.9404 82.2871 44.1273C83.5766 45.0742 84.7177 45.9142 86.7206 46.1476Z" fill="white"/>
<path d="M23.4349 53.1884L24.9011 53.8211L24.2095 55.4204C22.0429 55.608 20.8604 56.4786 19.5142 57.467C17.8996 58.6539 16.0713 60 12.5542 60C9.03709 60 7.20655 58.6539 5.592 57.467C4.09091 56.363 2.79273 55.4073 0.102545 55.3833H0V53.075C0.0349091 53.075 0.0698182 53.075 0.102545 53.0771C3.55418 53.1011 5.36073 54.432 6.96 55.608C8.48073 56.7251 9.79418 57.6917 12.5542 57.6917C15.3142 57.6917 16.6276 56.7251 18.1462 55.608C19.4815 54.6262 20.9673 53.5353 23.4327 53.1884H23.4349Z" fill="white"/>
<path d="M86.7208 57.6283V59.9454C83.9412 59.6902 82.3463 58.5163 80.9194 57.4669C79.3986 56.3498 78.0852 55.3833 75.3252 55.3833C72.5652 55.3833 71.2539 56.3498 69.7332 57.4669C68.1186 58.6538 66.2881 60 62.771 60C59.2539 60 57.4256 58.6538 55.811 57.4669C54.8619 56.7709 53.9957 56.1316 52.8066 55.7498L53.7252 53.6269C55.1652 54.1287 56.2103 54.8967 57.1768 55.608C58.6975 56.7251 60.011 57.6916 62.771 57.6916C65.531 57.6916 66.8445 56.7251 68.3652 55.608C69.9797 54.4211 71.8081 53.0749 75.3252 53.0749C78.8423 53.0749 80.6728 54.4211 82.2874 55.608C83.5768 56.5549 84.7179 57.3949 86.7208 57.6283Z" fill="white"/>
<path d="M60.5842 28.4095L65.1551 17.8385L60.8351 15.9709L63.318 10.2262L58.4263 8.112L60.438 3.456L52.4416 0L50.43 4.656L45.1412 2.36945L42.6583 8.11418L38.3405 6.24655L33.7696 16.8175L43.278 20.928L36.9289 35.6138L27.4205 31.5033L22.8496 42.0742L27.1696 43.9418L24.6867 49.6865L29.7769 51.888L27.7652 56.544L35.7616 60L37.7732 55.344L42.8634 57.5455L45.3463 51.8007L49.6663 53.6684L54.2372 43.0975L44.7267 38.9847L51.0758 24.2989L60.5842 28.4095ZM53.6067 2.94109L57.4969 4.62327L56.4583 7.02764L52.5682 5.34545L53.6067 2.94109ZM46.3063 5.31055L60.3769 11.3935L58.8671 14.8865L44.7965 8.80364L46.3063 5.31055ZM34.5943 57.0589L30.7042 55.3767L31.7427 52.9724L35.6329 54.6545L34.5943 57.0589ZM41.6983 54.6044L27.6278 48.5215L29.1376 45.0284L43.2082 51.1113L41.6983 54.6044ZM48.4991 50.7273L25.7907 40.9091L28.5856 34.4444L51.294 44.2604L48.4991 50.7273ZM42.8242 37.752L39.1325 36.1571L45.1805 22.1651L48.8722 23.76L42.8242 37.752ZM39.5034 9.18764L62.2118 19.0036L59.4169 25.4684L36.7085 15.6524L39.5034 9.18764Z" fill="white"/>
</svg>
