<svg width="132" height="173" viewBox="0 0 132 173" fill="none" xmlns="http://www.w3.org/2000/svg">
<path d="M131.915 99.2968C131.915 94.9852 130.742 91.627 128.432 89.3152C127.881 88.7644 127.287 88.2807 126.65 87.8602C127.615 77.7878 127.875 65.7037 127.875 50.4904V47.7719L125.337 46.7809C121.422 45.2647 117.44 43.8748 113.501 42.6528L113.446 42.635C111.523 42.0388 101.832 39.4427 98.6967 38.7715L98.6039 38.7498C96.7027 38.3451 94.7305 37.9641 92.7188 37.6107L92.6734 37.6028C91.1256 37.3323 89.5581 37.0855 87.9807 36.8585L100.239 24.9106L76.55 21.4695L65.9564 0L55.3628 21.4695L31.6722 24.9106L43.9301 36.8605C42.3547 37.0875 40.7872 37.3343 39.2414 37.6047L39.1565 37.6205C37.2652 37.9483 35.3008 38.3293 33.3365 38.7478L33.2358 38.7676C30.1146 39.4348 20.4015 42.0349 18.4826 42.6311L18.4411 42.6449C14.5006 43.8669 10.5087 45.2588 6.57214 46.7848L4.03528 47.7719V50.4924C4.03528 66.0748 4.3097 78.3761 5.33432 88.5927C4.49725 89.2027 3.78259 89.9055 3.1923 90.6972C1.95052 92.3595 1.32075 94.2804 1.32075 96.4066C1.32075 98.9573 2.0512 101.014 3.49435 102.527C3.6898 102.73 3.89117 102.925 4.09649 103.109L0 111.93L1.95249 113.215C3.36011 114.143 5.13492 114.875 7.37565 115.454C8.89184 115.845 10.4495 116.097 12.0229 116.212C12.0762 116.326 12.1295 116.443 12.1828 116.557C18.9741 131.167 30.7108 141.598 52.0145 160.537L52.6581 161.109C56.0281 164.106 59.5106 167.206 63.2991 170.609L65.9544 173L68.6176 170.611C72.57 167.06 76.1926 163.84 79.6949 160.726L79.9022 160.541C101.208 141.6 112.945 131.168 119.734 116.559C119.833 116.348 119.929 116.137 120.024 115.924H131.917V99.2968H131.915Z" fill="white"/>
<path d="M46.3882 39.2611C44.1613 39.5474 41.9166 39.8909 39.6837 40.2818L39.6344 40.2897C37.7273 40.6233 35.7946 40.9964 33.8815 41.4071L33.8026 41.4229C30.8314 42.0586 21.1518 44.6448 19.2961 45.2213L19.2467 45.2351C15.3477 46.4472 11.4131 47.8193 7.5594 49.3138L6.75195 49.6277V50.4944C6.75195 65.5063 7.02834 77.3594 7.9424 87.1456C8.05098 87.1002 8.15956 87.0567 8.26815 87.0133C8.93543 86.7547 9.64022 86.5375 10.3825 86.3638C9.53361 76.9073 9.29079 65.5536 9.28289 51.361C12.8226 50.0087 16.4216 48.761 20.0088 47.6476L20.0601 47.6318C21.8724 47.0711 31.4098 44.5204 34.3317 43.8966L34.4126 43.8808C36.2921 43.478 38.1972 43.1108 40.0687 42.7831L40.1457 42.7693C42.9846 42.2757 45.861 41.8552 48.7098 41.5255H48.7138L46.3882 39.2611ZM124.358 49.3118C120.504 47.8173 116.569 46.4453 112.668 45.2331L112.645 45.2272C110.797 44.6527 101.086 42.0566 98.1105 41.4209L98.0394 41.4051C96.1304 40.9984 94.1897 40.6213 92.2806 40.2877L92.2096 40.2759C89.9925 39.8889 87.7518 39.5454 85.5229 39.2552L83.2013 41.5196L83.223 41.5216C86.0599 41.8513 88.9383 42.2698 91.7733 42.7634L91.8443 42.7772C93.7277 43.1049 95.6348 43.4741 97.5163 43.8748L97.5775 43.8887C100.503 44.5145 110.035 47.0612 111.9 47.6397L111.918 47.6436C115.491 48.7531 119.094 49.9988 122.634 51.3551C122.626 65.3621 122.389 76.6053 121.566 85.9867C122.431 86.1091 123.252 86.3046 124.026 86.5711C124.899 76.8955 125.163 65.2121 125.163 50.4884V49.6218L124.358 49.3118ZM114.885 115.922H114.22C107.723 128.788 96.3613 138.89 76.4159 156.624C73.0953 159.575 69.67 162.622 65.9565 165.952C62.243 162.618 58.8178 159.575 55.4972 156.62C35.5932 138.927 24.2395 128.831 17.7345 116.005C16.8797 116.139 15.9834 116.226 15.0456 116.263C21.673 129.939 33.384 140.347 53.8171 158.511C57.3845 161.686 61.0763 164.965 65.1096 168.592L65.9565 169.352L66.8035 168.592C70.8368 164.969 74.5285 161.686 78.0959 158.515C98.7008 140.198 110.434 129.767 117.033 115.922H114.885Z" fill="#1B46F5"/>
<path d="M77.4664 39.7902L80.1849 55.6332L65.9568 48.1529L51.7306 55.6332L54.4471 39.7902L42.9395 28.5708L58.8437 26.2609L65.9568 11.8472L73.0698 26.2609L88.9761 28.5708L77.4664 39.7902Z" fill="white"/>
<path d="M83.5425 60.2568L65.9563 51.0116L48.37 60.2568L51.7281 40.6746L37.5 26.8058L57.1631 23.9491L65.9563 6.1319L74.7494 23.9491L94.4125 26.8058L80.1844 40.6746L83.5425 60.2568ZM65.9563 48.153L80.1824 55.6332L77.4659 39.7922L88.9755 28.5727L73.0693 26.2609L65.9563 11.8472L58.8432 26.2609L42.937 28.5727L54.4466 39.7922L51.7301 55.6332L65.9563 48.153Z" fill="#1B46F5"/>
<path fill-rule="evenodd" clip-rule="evenodd" d="M25.2601 65.5161L26.0557 70.1437L21.9098 67.9642L21.898 67.9582L17.7442 70.1437L18.5359 65.5161L15.1738 62.237L19.8231 61.5618L21.898 57.3528L21.9098 57.3765L23.9768 61.5618L28.6221 62.237L25.2601 65.5161Z" fill="#1B46F5"/>
<path fill-rule="evenodd" clip-rule="evenodd" d="M113.377 65.5161L114.173 70.1437L110.029 67.9642L110.015 67.9582L105.861 70.1437L106.653 65.5161L103.291 62.237L107.94 61.5618L110.015 57.3528L110.029 57.3765L112.094 61.5618L116.739 62.237L113.377 65.5161Z" fill="#1B46F5"/>
<path d="M50.6373 80.8912C49.6324 80.8912 48.7342 80.6701 47.9405 80.2279C47.1528 79.7877 46.5329 79.1737 46.0927 78.3801C45.6524 77.5923 45.4313 76.6921 45.4313 75.6833C45.4313 74.6784 45.6524 73.7801 46.0927 72.9905C46.5329 72.1988 47.1509 71.5829 47.9405 71.1426C48.7322 70.6984 49.6305 70.4793 50.6373 70.4793C52.2641 70.4793 53.6282 71.115 54.7298 72.3864L57.1463 70.1516C56.3724 69.2237 55.4169 68.511 54.2758 68.0174C53.1347 67.5199 51.8633 67.2712 50.4537 67.2712C48.7816 67.2712 47.2752 67.6344 45.9308 68.355C44.5923 69.0717 43.54 70.0746 42.7721 71.3499C42.0041 72.6292 41.6211 74.0743 41.6211 75.6833C41.6211 77.2962 42.0041 78.7413 42.7721 80.0206C43.54 81.296 44.5903 82.2969 45.9308 83.0155C47.2733 83.7361 48.7717 84.0993 50.428 84.0993C51.8376 84.0993 53.1169 83.8506 54.2639 83.3531C55.407 82.8595 56.3704 82.139 57.1443 81.1933L54.7279 78.9624C53.6282 80.2496 52.2641 80.8912 50.6373 80.8912Z" fill="black"/>
<path d="M68.9282 75.4069L74.2487 67.5535H70.2746L65.9984 74.1296H63.3017V67.5535H59.5605V83.819H63.3017V77.2646H65.9057L70.1364 83.819H74.4125L68.9282 75.4069Z" fill="black"/>
<path d="M90.0966 70.7616C89.4787 69.6146 88.612 68.7479 87.4966 68.1576C87.311 68.0589 87.1195 67.9701 86.9221 67.8911C85.939 67.4785 84.8235 67.2732 83.5679 67.2732C82.0656 67.2732 80.7547 67.5673 79.6393 68.1576C79.4182 68.2741 79.2089 68.3985 79.0115 68.5406C78.1941 69.0993 77.5367 69.8377 77.0392 70.7616C76.4174 71.9047 76.1094 73.2945 76.1094 74.9212V83.819H79.8288V79.916H87.2617V83.819H91.0265V74.9212C91.0265 73.2945 90.7185 71.9047 90.0966 70.7616ZM87.2617 76.8955H79.8268V74.5679C79.8268 73.2215 80.1545 72.2028 80.8139 71.5138C81.4713 70.8248 82.3795 70.4793 83.5423 70.4793C84.6893 70.4793 85.5955 70.8248 86.2627 71.5138C86.9261 72.2028 87.2617 73.2215 87.2617 74.5679V76.8955Z" fill="black"/>
<path d="M8.05312 112.826C6.12629 112.329 4.59035 111.705 3.44531 110.951L5.79462 105.891C6.87846 106.584 8.18934 107.148 9.72527 107.585C11.2612 108.021 12.7675 108.24 14.2423 108.24C17.2233 108.24 18.7139 107.504 18.7139 106.027C18.7139 105.334 18.3072 104.838 17.4938 104.536C16.6804 104.236 15.4307 103.98 13.7448 103.768C11.7567 103.468 10.1162 103.121 8.82109 102.73C7.526 102.339 6.40465 101.646 5.45506 100.653C4.50744 99.6601 4.03165 98.2446 4.03165 96.4066C4.03165 94.8707 4.47585 93.5085 5.36424 92.318C6.25264 91.1295 7.54772 90.2036 9.24949 89.5403C10.9513 88.8789 12.961 88.5473 15.2807 88.5473C16.9983 88.5473 18.706 88.7348 20.4077 89.1119C22.1095 89.489 23.5171 90.0082 24.6306 90.6695L22.2812 95.684C20.1432 94.4798 17.8097 93.8776 15.2787 93.8776C13.7724 93.8776 12.6432 94.0889 11.891 94.5094C11.1388 94.9319 10.7617 95.4728 10.7617 96.1361C10.7617 96.8883 11.1684 97.4174 11.9818 97.7175C12.7952 98.0195 14.0903 98.3038 15.867 98.5763C17.8551 98.9079 19.4798 99.2613 20.7453 99.6384C22.0108 100.015 23.1084 100.701 24.0422 101.694C24.976 102.687 25.442 104.072 25.442 105.849C25.442 107.356 24.9899 108.694 24.0877 109.869C23.1854 111.043 21.8667 111.954 20.1353 112.601C18.4039 113.249 16.3487 113.572 13.9698 113.572C11.9522 113.572 9.97995 113.324 8.05312 112.826Z" fill="black"/>
<path d="M68.2206 88.9085V102.325C68.2206 105.908 67.2414 108.68 65.2849 110.637C63.3265 112.595 60.5409 113.572 56.9281 113.572C55.1809 113.572 53.6371 113.302 52.2986 112.759C50.9581 112.218 49.8367 111.343 48.9325 110.139C48.0284 111.343 46.9149 112.216 45.5902 112.759C44.2655 113.302 42.7 113.572 40.8936 113.572C37.2492 113.572 34.4636 112.595 32.5367 110.637C30.6099 108.68 29.6465 105.908 29.6465 102.325V88.9085H36.6924V101.782C36.6924 103.8 37.0379 105.283 37.7309 106.232C38.4238 107.18 39.5077 107.656 40.9824 107.656C42.4887 107.656 43.6022 107.174 44.3247 106.211C45.0473 105.247 45.4086 103.77 45.4086 101.784V88.9105H52.4545V101.784C52.4545 103.772 52.8158 105.247 53.5384 106.211C54.2609 107.174 55.3744 107.656 56.8807 107.656C58.3554 107.656 59.4393 107.182 60.1342 106.232C60.8272 105.285 61.1726 103.8 61.1726 101.782V88.9085H68.2206Z" fill="black"/>
<path d="M74.5449 88.9085H81.5909V113.211H74.5449V88.9085Z" fill="black"/>
<path d="M126.513 91.2342C128.304 93.0267 129.2 95.7136 129.2 99.2968V113.209H122.154V100.381C122.154 98.4538 121.755 97.0146 120.958 96.067C120.16 95.1194 119.023 94.6436 117.546 94.6436C115.89 94.6436 114.579 95.1786 113.616 96.2467C112.652 97.3167 112.171 98.904 112.171 101.012V113.209H105.125V100.381C105.125 96.5566 103.589 94.6436 100.517 94.6436C98.8902 94.6436 97.5951 95.1786 96.6317 96.2467C95.6683 97.3167 95.1866 98.904 95.1866 101.012V113.209H88.1406V88.9066H94.8707V91.708C95.7749 90.6853 96.8805 89.9016 98.1913 89.3587C99.5022 88.8158 100.939 88.5453 102.505 88.5453C104.221 88.5453 105.772 88.8849 107.158 89.562C108.542 90.2392 109.658 91.2263 110.501 92.5213C111.494 91.2559 112.751 90.2786 114.273 89.5857C115.793 88.8927 117.458 88.5473 119.264 88.5473C122.304 88.5473 124.723 89.4436 126.513 91.2342Z" fill="black"/>
<path d="M107 120.624C106.437 121.469 105.847 122.308 105.227 123.143C102.814 123.307 101.533 124.249 100.07 125.325C98.3488 126.59 96.4003 128.024 92.6473 128.024C88.8963 128.024 86.9458 126.588 85.2243 125.325C83.6133 124.14 82.2215 123.118 79.2997 123.118C76.3778 123.118 74.986 124.14 73.3751 125.325C71.6555 126.59 69.705 128.024 65.952 128.024C62.201 128.024 60.2505 126.588 58.529 125.325C56.9181 124.14 55.5262 123.118 52.6044 123.118C49.6826 123.118 48.2908 124.14 46.6798 125.325C44.9603 126.59 43.0098 128.024 39.2568 128.024C35.5038 128.024 33.5553 126.588 31.8338 125.325C30.3709 124.249 29.0896 123.307 26.6791 123.143C26.0592 122.308 25.4689 121.469 24.9062 120.624C25.2261 120.601 25.5597 120.589 25.9111 120.589C29.6621 120.589 31.6126 122.024 33.3342 123.287C34.9451 124.472 36.3369 125.495 39.2588 125.495C42.1806 125.495 43.5724 124.472 45.1834 123.287C46.9049 122.022 48.8534 120.589 52.6064 120.589C56.3574 120.589 58.3079 122.024 60.0294 123.287C61.6404 124.472 63.0322 125.495 65.954 125.495C68.8758 125.495 70.2677 124.472 71.8786 123.287C73.6001 122.022 75.5487 120.589 79.3017 120.589C83.0526 120.589 85.0032 122.024 86.7247 123.287C88.3356 124.472 89.7274 125.495 92.6493 125.495C95.5711 125.495 96.9629 124.472 98.5739 123.287C100.293 122.022 102.244 120.589 105.997 120.589C106.344 120.589 106.68 120.601 107 120.624Z" fill="#1B46F5"/>
<path d="M91.836 137.672C91.0878 138.38 90.3178 139.101 89.5242 139.835C87.6625 139.322 86.3911 138.388 85.2264 137.531C83.6154 136.347 82.2236 135.324 79.3017 135.324C76.3799 135.324 74.9881 136.347 73.3771 137.531C71.6576 138.797 69.7071 140.23 65.9541 140.23C62.2031 140.23 60.2526 138.797 58.5311 137.531C56.9201 136.347 55.5283 135.324 52.6065 135.324C49.6847 135.324 48.2928 136.347 46.6819 137.531C45.5171 138.388 44.2477 139.322 42.386 139.835C41.5943 139.101 40.8244 138.38 40.0762 137.672C42.4571 137.5 43.7304 136.562 45.1835 135.492C46.905 134.227 48.8535 132.793 52.6065 132.793C56.3575 132.793 58.308 134.227 60.0295 135.492C61.6405 136.677 63.0323 137.699 65.9541 137.699C68.8759 137.699 70.2678 136.677 71.8787 135.492C73.6002 134.227 75.5488 132.793 79.3017 132.793C83.0527 132.793 85.0033 134.227 86.7248 135.492C88.1778 136.562 89.4531 137.5 91.836 137.672Z" fill="#1B46F5"/>
<path d="M83.1564 145.626C82.4181 146.287 81.6659 146.96 80.896 147.647C80.4182 147.57 79.8911 147.529 79.3028 147.529C76.381 147.529 74.9891 148.551 73.3782 149.736C71.6586 151.001 69.7081 152.435 65.9552 152.435C62.2042 152.435 60.2536 150.999 58.5321 149.736C56.9212 148.551 55.5294 147.529 52.6075 147.529C52.0192 147.529 51.4941 147.57 51.0163 147.647L49.8752 146.627L48.7578 145.626C49.8061 145.247 51.0518 145 52.6095 145C56.3605 145 58.311 146.433 60.0325 147.699C61.6435 148.883 63.0353 149.908 65.9571 149.908C68.879 149.908 70.2708 148.885 71.8817 147.701C73.6032 146.435 75.5518 145.002 79.3048 145.002C80.8604 145 82.1081 145.247 83.1564 145.626Z" fill="#1B46F5"/>
</svg>
