<svg width="100%" height="100%" viewBox="0 0 320 226" fill="none" xmlns="http://www.w3.org/2000/svg">
<g opacity="0.1">
<path d="M-559 55.2734C-532.368 55.2734 -532.368 73.2734 -505.744 73.2734C-479.112 73.2734 -479.112 55.2734 -452.488 55.2734C-425.856 55.2734 -425.856 73.2734 -399.232 73.2734C-372.599 73.2734 -372.599 55.2734 -345.976 55.2734C-319.343 55.2734 -319.343 73.2734 -292.72 73.2734C-266.087 73.2734 -266.087 55.2734 -239.464 55.2734C-212.831 55.2734 -212.831 73.2734 -186.208 73.2734C-159.575 73.2734 -159.575 55.2734 -132.951 55.2734C-106.319 55.2734 -106.319 73.2734 -79.6954 73.2734C-53.063 73.2734 -53.0631 55.2734 -26.4393 55.2734C0.193018 55.2734 0.193016 73.2734 26.8167 73.2734C53.4491 73.2734 53.4491 55.2734 80.0814 55.2734C106.705 55.2734 106.705 73.2734 133.338 73.2734C159.97 73.2734 159.97 55.2734 186.594 55.2734C213.226 55.2734 213.226 73.2734 239.85 73.2734C266.482 73.2734 266.482 55.2734 293.106 55.2734C319.738 55.2734 319.738 73.2734 346.362 73.2734C372.994 73.2734 372.994 55.2734 399.626 55.2734C426.259 55.2734 426.259 73.2734 452.891 73.2734C479.524 73.2734 479.524 55.2734 506.156 55.2734C532.788 55.2734 532.788 73.2734 559.421 73.2734C586.053 73.2734 586.053 55.2734 612.685 55.2734C639.318 55.2734 639.318 73.2734 665.941 73.2734C692.574 73.2734 692.574 55.2734 719.206 55.2734C745.838 55.2734 745.838 73.2734 772.471 73.2734C799.103 73.2734 799.103 55.2734 825.735 55.2734C852.368 55.2734 852.368 73.2734 879 73.2734" stroke="white" stroke-width="16" stroke-miterlimit="10"/>
<path d="M-559 128.273C-532.368 128.273 -532.368 144.273 -505.744 144.273C-479.112 144.273 -479.112 128.273 -452.488 128.273C-425.856 128.273 -425.856 144.273 -399.232 144.273C-372.599 144.273 -372.599 128.273 -345.976 128.273C-319.343 128.273 -319.343 144.273 -292.72 144.273C-266.087 144.273 -266.087 128.273 -239.464 128.273C-212.831 128.273 -212.831 144.273 -186.207 144.273C-159.575 144.273 -159.575 128.273 -132.951 128.273C-106.319 128.273 -106.319 144.273 -79.6954 144.273C-53.063 144.273 -53.063 128.273 -26.4393 128.273C0.193059 128.273 0.193019 144.273 26.8167 144.273C53.4491 144.273 53.4491 128.273 80.0815 128.273C106.705 128.273 106.705 144.273 133.338 144.273C159.97 144.273 159.97 128.273 186.594 128.273C213.226 128.273 213.226 144.273 239.85 144.273C266.482 144.273 266.482 128.273 293.106 128.273C319.738 128.273 319.738 144.273 346.362 144.273C372.994 144.273 372.994 128.273 399.627 128.273C426.259 128.273 426.259 144.273 452.891 144.273C479.524 144.273 479.524 128.273 506.156 128.273C532.788 128.273 532.788 144.273 559.421 144.273C586.053 144.273 586.053 128.273 612.685 128.273C639.318 128.273 639.318 144.273 665.941 144.273C692.574 144.273 692.574 128.273 719.206 128.273C745.838 128.273 745.838 144.273 772.471 144.273C799.103 144.273 799.103 128.273 825.735 128.273C852.368 128.273 852.368 144.273 879 144.273" stroke="white" stroke-width="16" stroke-miterlimit="10"/>
<path d="M-559 199.273C-532.368 199.273 -532.368 217.273 -505.744 217.273C-479.112 217.273 -479.112 199.273 -452.488 199.273C-425.856 199.273 -425.856 217.273 -399.232 217.273C-372.599 217.273 -372.599 199.273 -345.976 199.273C-319.343 199.273 -319.343 217.273 -292.72 217.273C-266.087 217.273 -266.087 199.273 -239.464 199.273C-212.831 199.273 -212.831 217.273 -186.208 217.273C-159.575 217.273 -159.575 199.273 -132.951 199.273C-106.319 199.273 -106.319 217.273 -79.6954 217.273C-53.063 217.273 -53.0631 199.273 -26.4393 199.273C0.193018 199.273 0.193016 217.273 26.8167 217.273C53.4491 217.273 53.4491 199.273 80.0814 199.273C106.705 199.273 106.705 217.273 133.338 217.273C159.97 217.273 159.97 199.273 186.594 199.273C213.226 199.273 213.226 217.273 239.85 217.273C266.482 217.273 266.482 199.273 293.106 199.273C319.738 199.273 319.738 217.273 346.362 217.273C372.994 217.273 372.994 199.273 399.626 199.273C426.259 199.273 426.259 217.273 452.891 217.273C479.524 217.273 479.524 199.273 506.156 199.273C532.788 199.273 532.788 217.273 559.421 217.273C586.053 217.273 586.053 199.273 612.685 199.273C639.318 199.273 639.318 217.273 665.941 217.273C692.574 217.273 692.574 199.273 719.206 199.273C745.838 199.273 745.838 217.273 772.471 217.273C799.103 217.273 799.103 199.273 825.735 199.273C852.368 199.273 852.368 217.273 879 217.273" stroke="white" stroke-width="16" stroke-miterlimit="10"/>
</g>
</svg>
