<svg width="100%" height="100%" viewBox="0 0 1438 179" fill="none" xmlns="http://www.w3.org/2000/svg">
<g opacity="0.2">
<path d="M0 8.27344C26.6323 8.27344 26.6323 26.2734 53.2561 26.2734C79.8884 26.2734 79.8884 8.27344 106.512 8.27344C133.144 8.27344 133.144 26.2734 159.768 26.2734C186.401 26.2734 186.401 8.27344 213.024 8.27344C239.657 8.27344 239.657 26.2734 266.28 26.2734C292.913 26.2734 292.913 8.27344 319.536 8.27344C346.169 8.27344 346.169 26.2734 372.792 26.2734C399.425 26.2734 399.425 8.27344 426.049 8.27344C452.681 8.27344 452.681 26.2734 479.305 26.2734C505.937 26.2734 505.937 8.27344 532.561 8.27344C559.193 8.27344 559.193 26.2734 585.817 26.2734C612.449 26.2734 612.449 8.27344 639.081 8.27344C665.705 8.27344 665.705 26.2734 692.338 26.2734C718.97 26.2734 718.97 8.27344 745.594 8.27344C772.226 8.27344 772.226 26.2734 798.85 26.2734C825.482 26.2734 825.482 8.27344 852.106 8.27344C878.738 8.27344 878.738 26.2734 905.362 26.2734C931.994 26.2734 931.994 8.27344 958.626 8.27344C985.259 8.27344 985.259 26.2734 1011.89 26.2734C1038.52 26.2734 1038.52 8.27344 1065.16 8.27344C1091.79 8.27344 1091.79 26.2734 1118.42 26.2734C1145.05 26.2734 1145.05 8.27344 1171.69 8.27344C1198.32 8.27344 1198.32 26.2734 1224.94 26.2734C1251.57 26.2734 1251.57 8.27344 1278.21 8.27344C1304.84 8.27344 1304.84 26.2734 1331.47 26.2734C1358.1 26.2734 1358.1 8.27344 1384.74 8.27344C1411.37 8.27344 1411.37 26.2734 1438 26.2734" stroke="white" stroke-width="16" stroke-miterlimit="10"/>
<path d="M0 81.2734C26.6323 81.2734 26.6323 97.2734 53.2561 97.2734C79.8884 97.2734 79.8884 81.2734 106.512 81.2734C133.144 81.2734 133.144 97.2734 159.768 97.2734C186.401 97.2734 186.401 81.2734 213.024 81.2734C239.657 81.2734 239.657 97.2734 266.28 97.2734C292.913 97.2734 292.913 81.2734 319.536 81.2734C346.169 81.2734 346.169 97.2734 372.793 97.2734C399.425 97.2734 399.425 81.2734 426.049 81.2734C452.681 81.2734 452.681 97.2734 479.305 97.2734C505.937 97.2734 505.937 81.2734 532.561 81.2734C559.193 81.2734 559.193 97.2734 585.817 97.2734C612.449 97.2734 612.449 81.2734 639.081 81.2734C665.705 81.2734 665.705 97.2734 692.338 97.2734C718.97 97.2734 718.97 81.2734 745.594 81.2734C772.226 81.2734 772.226 97.2734 798.85 97.2734C825.482 97.2734 825.482 81.2734 852.106 81.2734C878.738 81.2734 878.738 97.2734 905.362 97.2734C931.994 97.2734 931.994 81.2734 958.627 81.2734C985.259 81.2734 985.259 97.2734 1011.89 97.2734C1038.52 97.2734 1038.52 81.2734 1065.16 81.2734C1091.79 81.2734 1091.79 97.2734 1118.42 97.2734C1145.05 97.2734 1145.05 81.2734 1171.69 81.2734C1198.32 81.2734 1198.32 97.2734 1224.94 97.2734C1251.57 97.2734 1251.57 81.2734 1278.21 81.2734C1304.84 81.2734 1304.84 97.2734 1331.47 97.2734C1358.1 97.2734 1358.1 81.2734 1384.74 81.2734C1411.37 81.2734 1411.37 97.2734 1438 97.2734" stroke="white" stroke-width="16" stroke-miterlimit="10"/>
<path d="M0 152.273C26.6323 152.273 26.6323 170.273 53.2561 170.273C79.8884 170.273 79.8884 152.273 106.512 152.273C133.144 152.273 133.144 170.273 159.768 170.273C186.401 170.273 186.401 152.273 213.024 152.273C239.657 152.273 239.657 170.273 266.28 170.273C292.913 170.273 292.913 152.273 319.536 152.273C346.169 152.273 346.169 170.273 372.792 170.273C399.425 170.273 399.425 152.273 426.049 152.273C452.681 152.273 452.681 170.273 479.305 170.273C505.937 170.273 505.937 152.273 532.561 152.273C559.193 152.273 559.193 170.273 585.817 170.273C612.449 170.273 612.449 152.273 639.081 152.273C665.705 152.273 665.705 170.273 692.338 170.273C718.97 170.273 718.97 152.273 745.594 152.273C772.226 152.273 772.226 170.273 798.85 170.273C825.482 170.273 825.482 152.273 852.106 152.273C878.738 152.273 878.738 170.273 905.362 170.273C931.994 170.273 931.994 152.273 958.626 152.273C985.259 152.273 985.259 170.273 1011.89 170.273C1038.52 170.273 1038.52 152.273 1065.16 152.273C1091.79 152.273 1091.79 170.273 1118.42 170.273C1145.05 170.273 1145.05 152.273 1171.69 152.273C1198.32 152.273 1198.32 170.273 1224.94 170.273C1251.57 170.273 1251.57 152.273 1278.21 152.273C1304.84 152.273 1304.84 170.273 1331.47 170.273C1358.1 170.273 1358.1 152.273 1384.74 152.273C1411.37 152.273 1411.37 170.273 1438 170.273" stroke="white" stroke-width="16" stroke-miterlimit="10"/>
</g>
</svg>
