<svg width="100%" height="100%" viewBox="0 0 259 63" fill="none" xmlns="http://www.w3.org/2000/svg">
<path d="M233.096 15.1201C225.778 15.1201 221.974 12.3198 218.621 9.84876C215.511 7.55806 212.828 5.5785 207.197 5.5785C201.566 5.5785 198.884 7.55806 195.774 9.84876C192.42 12.3198 188.617 15.1201 181.298 15.1201C173.979 15.1201 170.176 12.3198 166.823 9.84876C163.713 7.55806 161.03 5.5785 155.399 5.5785C149.768 5.5785 147.086 7.55806 143.975 9.84876C140.622 12.3198 136.819 15.1201 129.5 15.1201C122.181 15.1201 118.378 12.3198 115.02 9.84876C111.91 7.55806 109.227 5.5785 103.596 5.5785C97.9656 5.5785 95.2829 7.55806 92.1727 9.84876C88.8194 12.3198 85.016 15.1201 77.6973 15.1201C70.3786 15.1201 66.5752 12.3198 63.2219 9.84876C60.1117 7.55806 57.429 5.5785 51.7982 5.5785C46.1674 5.5785 43.4847 7.55806 40.3745 9.84876C37.0212 12.3198 33.2178 15.1201 25.8991 15.1201C18.5804 15.1201 14.777 12.3198 11.4237 9.84876C8.31346 7.55806 5.63083 5.58301 0 5.58301V0.419922C7.31872 0.419922 11.1221 3.22017 14.4754 5.69123C17.5856 7.98193 20.2683 9.96149 25.8991 9.96149C31.5299 9.96149 34.2126 7.98193 37.3228 5.69123C40.6761 3.22017 44.4795 0.419922 51.7982 0.419922C59.1169 0.419922 62.9203 3.22017 66.2736 5.69123C69.3838 7.98193 72.0665 9.96149 77.6973 9.96149C83.3281 9.96149 86.0108 7.98193 89.121 5.69123C92.4743 3.22017 96.2777 0.419922 103.596 0.419922C110.915 0.419922 114.719 3.22017 118.072 5.69123C121.182 7.98193 123.865 9.96149 129.496 9.96149C135.126 9.96149 137.809 7.98193 140.919 5.69123C144.277 3.22017 148.076 0.419922 155.399 0.419922C162.722 0.419922 166.521 3.22017 169.875 5.69123C172.985 7.98193 175.667 9.96149 181.298 9.96149C186.929 9.96149 189.612 7.98193 192.722 5.69123C196.075 3.22017 199.879 0.419922 207.197 0.419922C214.516 0.419922 218.319 3.22017 221.673 5.69123C224.783 7.98193 227.466 9.96149 233.096 9.96149C238.727 9.96149 241.41 7.98193 244.52 5.69123C247.878 3.22017 251.677 0.419922 259 0.419922V5.58301C253.369 5.58301 250.687 7.56257 247.576 9.85327C244.219 12.3198 240.42 15.1201 233.096 15.1201Z" fill="#FF3E00"/>
<path d="M233.096 38.8521C225.778 38.8521 221.974 36.0519 218.621 33.5808C215.511 31.2901 212.828 29.3106 207.197 29.3106C201.566 29.3106 198.884 31.2901 195.774 33.5808C192.42 36.0519 188.617 38.8521 181.298 38.8521C173.979 38.8521 170.176 36.0519 166.823 33.5808C163.713 31.2901 161.03 29.3106 155.399 29.3106C149.768 29.3106 147.086 31.2901 143.975 33.5808C140.622 36.0519 136.819 38.8521 129.5 38.8521C122.181 38.8521 118.378 36.0519 115.02 33.5808C111.91 31.2901 109.227 29.3106 103.596 29.3106C97.9656 29.3106 95.283 31.2901 92.1727 33.5808C88.8194 36.0519 85.016 38.8521 77.6973 38.8521C70.3786 38.8521 66.5752 36.0519 63.2219 33.5808C60.1117 31.2901 57.429 29.3106 51.7982 29.3106C46.1674 29.3106 43.4847 31.2901 40.3745 33.5808C37.0212 36.0519 33.2178 38.8521 25.8991 38.8521C18.5804 38.8521 14.777 36.0519 11.4237 33.5808C8.31346 31.2901 5.63083 29.3106 0 29.3106V24.1475C7.31872 24.1475 11.1221 26.9477 14.4754 29.4188C17.5856 31.7095 20.2683 33.6845 25.8991 33.6845C31.5299 33.6845 34.2126 31.705 37.3228 29.4188C40.6761 26.9477 44.4795 24.1475 51.7982 24.1475C59.1169 24.1475 62.9203 26.9477 66.2736 29.4188C69.3839 31.7095 72.0665 33.6845 77.6973 33.6845C83.3281 33.6845 86.0108 31.705 89.121 29.4188C92.4743 26.9477 96.2777 24.1475 103.596 24.1475C110.915 24.1475 114.719 26.9477 118.072 29.4188C121.182 31.7095 123.865 33.6845 129.496 33.6845C135.126 33.6845 137.809 31.705 140.919 29.4188C144.272 26.9477 148.076 24.1475 155.395 24.1475C162.713 24.1475 166.517 26.9477 169.87 29.4188C172.98 31.7095 175.663 33.6845 181.294 33.6845C186.925 33.6845 189.607 31.705 192.717 29.4188C196.071 26.9477 199.874 24.1475 207.193 24.1475C214.512 24.1475 218.315 26.9477 221.668 29.4188C224.778 31.7095 227.461 33.6845 233.092 33.6845C238.723 33.6845 241.405 31.705 244.516 29.4188C247.869 26.9477 251.672 24.1475 258.991 24.1475V29.3106C253.36 29.3106 250.678 31.2901 247.567 33.5808C244.219 36.0519 240.42 38.8521 233.096 38.8521Z" fill="#FF3E00"/>
<path d="M233.096 62.5802C225.777 62.5802 221.974 59.7799 218.62 57.3088C215.51 55.0181 212.828 53.0386 207.197 53.0386C201.566 53.0386 198.883 55.0181 195.773 57.3088C192.42 59.7799 188.616 62.5802 181.298 62.5802C173.979 62.5802 170.175 59.7799 166.822 57.3088C163.712 55.0181 161.029 53.0386 155.398 53.0386C149.768 53.0386 147.085 55.0181 143.975 57.3088C140.622 59.7799 136.818 62.5802 129.499 62.5802C122.181 62.5802 118.377 59.7799 115.024 57.3088C111.914 55.0181 109.231 53.0386 103.6 53.0386C97.9695 53.0386 95.2868 55.0181 92.1766 57.3088C88.8233 59.7799 85.0199 62.5802 77.7012 62.5802C70.3825 62.5802 66.5791 59.7799 63.2258 57.3088C60.1156 55.0181 57.4329 53.0386 51.8021 53.0386C46.1713 53.0386 43.4886 55.0181 40.3784 57.3088C37.0251 59.7799 33.2217 62.5802 25.903 62.5802C18.5843 62.5802 14.7809 59.7799 11.4276 57.3088C8.31736 55.0181 5.63473 53.0386 0.00390625 53.0386V47.8755C7.32263 47.8755 11.126 50.6757 14.4793 53.1468C17.5895 55.4375 20.2722 57.4171 25.903 57.4171C31.5338 57.4171 34.2165 55.4375 37.3267 53.1468C40.68 50.6757 44.4834 47.8755 51.8021 47.8755C59.1208 47.8755 62.9242 50.6757 66.2775 53.1468C69.3877 55.4375 72.0704 57.4171 77.7012 57.4171C83.332 57.4171 86.0147 55.4375 89.1249 53.1468C92.4782 50.6757 96.2816 47.8755 103.6 47.8755C110.919 47.8755 114.722 50.6757 118.076 53.1468C121.186 55.4375 123.869 57.4171 129.499 57.4171C135.13 57.4171 137.813 55.4375 140.923 53.1468C144.276 50.6757 148.08 47.8755 155.398 47.8755C162.717 47.8755 166.521 50.6757 169.874 53.1468C172.984 55.4375 175.667 57.4171 181.298 57.4171C186.928 57.4171 189.611 55.4375 192.721 53.1468C196.075 50.6757 199.878 47.8755 207.197 47.8755C214.515 47.8755 218.319 50.6757 221.672 53.1468C224.782 55.4375 227.465 57.4171 233.096 57.4171C238.727 57.4171 241.409 55.4375 244.52 53.1468C247.873 50.6757 251.676 47.8755 258.995 47.8755V53.0386C253.364 53.0386 250.681 55.0181 247.571 57.3088C244.218 59.7799 240.419 62.5802 233.096 62.5802Z" fill="#FF3E00"/>
</svg>
